<svg xmlns="http://www.w3.org/2000/svg" xmlns:xlink="http://www.w3.org/1999/xlink" width="53" height="53" viewBox="0 0 53 53">
  <defs>
    <style>
    </style>
    <linearGradient id="linear-gradient" x1="0.5" x2="0.5" y2="1" gradientUnits="objectBoundingBox">
      <stop offset="0" stop-color="#70bc17"/>
      <stop offset="1" stop-color="#a4e316"/>
    </linearGradient>
  </defs>
  <g id="组_3836" data-name="组 3836" transform="translate(-24.579 -20)">
<!--    <circle id="椭圆_259" data-name="椭圆 259" class="cls-1" cx="26.5" cy="26.5" r="26.5" transform="translate(24.579 20)"/>-->
    <path id="路径_1884" data-name="路径 1884" class="cls-2" d="M104.97,87.4a13.062,13.062,0,1,0,1.024,5.069A12.978,12.978,0,0,0,104.97,87.4Zm-11.034.987q.794-.011,1.584-.041,1.375-.054,2.747-.171a15.594,15.594,0,0,1,.584,3.33H93.936Zm0-1.931V81.975a10.4,10.4,0,0,1,1.841,1.634,11.377,11.377,0,0,1,1.772,2.683C96.285,86.387,95.074,86.436,93.936,86.453Zm-1.929-4.364v4.362q-1.56-.025-3.117-.13l-.337-.024a11.4,11.4,0,0,1,1.708-2.614A10.472,10.472,0,0,1,92.007,82.089Zm-3.289,6.154q1.642.112,3.289.139V91.5H87.254a15.6,15.6,0,0,1,.583-3.324Q88.264,88.212,88.718,88.243ZM85.32,91.5h-3.4a11,11,0,0,1,1.089-3.927c.611.108,1.593.264,2.876.411A17.811,17.811,0,0,0,85.32,91.5Zm-.026,1.929a12.655,12.655,0,0,0,.7,3.521c-1.329.15-2.345.311-2.973.422a11,11,0,0,1-1.1-3.942h3.373Zm1.932,0h4.781v3.136c-1.1.018-2.195.064-3.289.139q-.38.026-.742.055A10.9,10.9,0,0,1,87.227,93.43ZM92.007,98.5v3.97a18.728,18.728,0,0,1-1.689-1.8,16.079,16.079,0,0,1-1.428-2.04q1.557-.1,3.117-.13Zm1.929,4.12V98.5c1.037.015,2.134.057,3.276.136a16.082,16.082,0,0,1-1.425,2.035A18.778,18.778,0,0,1,93.936,102.617Zm1.584-6.011q-.791-.031-1.584-.042V93.43h4.942a10.9,10.9,0,0,1-.752,3.334Q96.825,96.657,95.52,96.606Zm5.291-3.175h3.212a11,11,0,0,1-1.095,3.938q-1.4-.239-2.818-.405a12.658,12.658,0,0,0,.7-3.533Zm-.026-1.929a17.807,17.807,0,0,0-.569-3.529q1.365-.163,2.72-.394a11,11,0,0,1,1.087,3.923Zm.031-6.879a11.251,11.251,0,0,1,1.026,1.18q-1.129.175-2.264.3a13.424,13.424,0,0,0-2.36-3.778q-.08-.09-.162-.179A11.067,11.067,0,0,1,100.816,84.622ZM89.139,82.051q-.128.135-.252.274a13.426,13.426,0,0,0-2.365,3.789c-.975-.105-1.793-.218-2.418-.316a11.255,11.255,0,0,1,1.024-1.177A11.057,11.057,0,0,1,89.139,82.051ZM85.128,100.31a11.257,11.257,0,0,1-1.012-1.162c.679-.105,1.583-.23,2.671-.341a17.507,17.507,0,0,0,2.076,3.129q.514.624,1.077,1.206A11.031,11.031,0,0,1,85.128,100.31Zm11.1,2.765q.528-.551,1.014-1.14a17.514,17.514,0,0,0,2.07-3.119q1.263.134,2.518.328a11.255,11.255,0,0,1-1.015,1.165,11.037,11.037,0,0,1-4.587,2.766Z" transform="translate(-41.972 -45.465)"/>
  </g>
</svg>
